<?xml version="1.0" encoding="utf-8"?>
<!-- Generator: Adobe Illustrator 26.0.2, SVG Export Plug-In . SVG Version: 6.00 Build 0)  -->
<svg version="1.1" id="Vrstva_1" xmlns="http://www.w3.org/2000/svg" xmlns:xlink="http://www.w3.org/1999/xlink" x="0px" y="0px"
	 viewBox="0 0 314.7 87.3" style="enable-background:new 0 0 314.7 87.3;" xml:space="preserve">
<style type="text/css">
	.st0{fill:#944BBB;}
</style>
<path class="st0" d="M162.9,53.4c0.1,1.8-0.6,3.5-1.9,4.8c-1.1,1.2-2.7,1.9-4.3,1.9c-1.6,0-3.1-0.6-4.2-1.8l-7.7,25.4
	c-0.7,2.5-2,3.7-3.8,3.7c-2.4,0-3.9-1.2-4.3-3.7l-3.9-21.7l-5.2,18.4c-0.5,1.8-1.6,3.5-3.1,4.6c-1.4,1.1-3.1,1.6-4.8,1.6h-11.1
	c0.5-1.5,1-2.9,1.8-4.3c0.9-1.6,2-2.4,3.2-2.4c1.1,0.1,2.3,0.3,3.4,0.6c1.1,0.3,2.3,0.5,3.4,0.6c1.6,0,2.8-1.2,3.5-3.6l7.2-24.6
	c0.3-1.4,0.9-2.8,1.6-4.1c0.8-1.1,2.1-1.8,3.5-1.7c2.3,0,3.8,2,4.5,5.9l3.2,18.9l4.8-16c1.8-5.9,4.5-8.9,8.1-8.9
	c1.6,0,3.2,0.7,4.3,1.8C162.2,49.9,162.9,51.6,162.9,53.4z"/>
<path class="st0" d="M184.9,82c-0.2,1.4-1,2.6-2.1,3.5c-0.8,0.6-1.8,0.9-2.8,0.9h-9.7c-2.3,0-3.4-0.9-3.4-2.6
	c-1.1,1.7-2.9,2.6-4.9,2.6h-4.1c-1.1,0.1-2.2-0.4-2.9-1.2c-0.7-0.8-1-1.8-1-2.8c0-0.7,0.1-1.4,0.3-2l3.9-12.7h8.5L162.3,82h4.7
	l4.3-14.4h8.4L175.4,82L184.9,82L184.9,82z"/>
<path class="st0" d="M230.4,82c-0.5,2.9-2.2,4.4-5.3,4.4h-9.5c-0.8,0-1.6-0.4-2.1-1.1c-0.6-0.7-0.9-1.6-0.9-2.5c0-0.3,0-0.6,0.1-0.9
	c0.3-1.3,0.9-3.3,1.5-5.9l-7.9,7.8c-2,2-3.7,2.9-5.1,2.9c-2.1,0-3.2-0.9-3.2-2.8c0-0.7,0.1-1.4,0.4-2l1.9-5.9l-9.3,9.2
	c-0.8,0.8-1.9,1.2-3,1.2h-4.8l5.6-18.8h8.4l-2.6,8.8l7.1-7c1.6-1.6,3.7-2.6,6-2.6c1.8,0,2.8,0.8,2.8,2.5c0,0.5-0.1,1.1-0.3,1.6
	l-1.7,5.5l7-7c1.4-1.6,3.5-2.5,5.6-2.6c2,0,2.9,1,2.9,3c0,0.8-0.1,1.5-0.4,2.2l-3,9.9H230.4L230.4,82z"/>
<path class="st0" d="M272.5,67.6c-1,2.9-2.7,4.4-5.2,4.4h-12.6c-0.6,5.3-2.9,9.1-6.9,11.6c-3.1,1.9-6.6,2.8-10.2,2.7h-4.2
	c-1.7,0.1-3.1-1.3-3.2-2.9c0-0.1,0-0.3,0-0.4c0-0.8,0.1-1.6,0.4-2.3l8.3-27.6h8.4l-8.7,28.8c3.3,0.1,5.7-1.5,7.1-4.8
	c-1.4-1-2.2-2.6-2.2-4.4c0-1.4,0.5-2.7,1.4-3.7c0.8-1,2.1-1.5,3.4-1.5L272.5,67.6L272.5,67.6z"/>
<path class="st0" d="M287.5,82c-0.3,1.4-1.1,2.6-2.2,3.3c-1,0.7-2.3,1.1-3.6,1.1h-13c-7.5,0-11.3-2.7-11.3-8.1
	c-0.1-3.2,1.3-6.2,3.9-8.1c2.3-1.7,5.1-2.6,7.9-2.5h3.4c1.8,0,3.6,0.3,5.2,1.1c1.8,0.7,3,2.4,3.1,4.4c0.1,1.9-0.8,3.8-2.4,4.9h-7.7
	l2.5-5.9h-4.9l-1.9,6.6c-0.1,0.3-0.2,0.7-0.2,1c0,1.5,1,2.2,3,2.2L287.5,82L287.5,82z"/>
<path class="st0" d="M314.7,82c0,1.3-0.7,2.5-1.8,3.3c-0.9,0.7-2.1,1.1-3.3,1.2h-8.9c-2.4,0-3.5-1.2-3.5-3.5c0-0.6,0.1-1.3,0.3-1.9
	l2.6-9h-5l-2.6,7.9c-0.3,1.3-1.5,2.1-2.8,2h-2.5l3-9.9c-1-0.3-1.8-0.9-2.3-1.7c-0.6-0.9-0.9-2-0.9-3.1c-0.1-2,0.9-3.8,2.5-4.9
	c1.5-1,3.2-1.5,4.9-1.4h3.9l-2,6.7h12.9L304.9,82L314.7,82L314.7,82z"/>
<path class="st0" d="M42.5,35.2c0,1.3-0.7,2.6-1.7,3.4c-1,0.8-2.2,1.1-3.4,1.1h-9.5c-1.1,0.1-2.2-0.4-3-1.2c-0.7-1-1.3-2.1-1.7-3.3
	l-4.9-12.3c1.4-0.4,2.9-1,4.2-1.6c1.4-0.5,2.7-1.2,4-1.9c3.3-1.9,4.9-4.4,4.9-7.3c0-3.3-2.1-5-6.2-5H0L3.9,0h24.9
	c9,0,13.4,3.3,13.4,9.8c0,5.5-4.7,10.3-14,14.5l4.5,11L42.5,35.2z M21.8,10.8l-9,29H3.9l9-29H21.8z"/>
<path class="st0" d="M74.5,39.4c-0.8,3.9-2.8,5.8-6.1,5.8h-9.4c-2.7,0-4-1.3-4-3.8c-1.5,2.8-4,4.5-6.6,4.5c-1.8,0.1-3.5-0.9-4.7-2.6
	c-1.2-1.9-1.9-4.3-1.8-6.8c-0.2-4.6,1.3-9,4-12c2.5-2.7,5.6-4.1,8.9-4H69l-4.7,18.8L74.5,39.4L74.5,39.4z M58.5,26.3h-5.5l-1.7,8.4
	c-0.1,0.5-0.1,1-0.1,1.4c0,2.1,1.4,3.2,4.2,3.2L58.5,26.3z"/>
<path class="st0" d="M108.4,35.2c-0.4,1.6-1.4,2.9-2.9,3.7c-1,0.6-2.2,0.9-3.3,0.9h-9.9c-2.3,0-3.4-0.9-3.4-2.5c0-0.7,0.1-1.4,0.4-2
	l1.9-6.1l-8.5,8.2c-2,1.6-3.6,2.4-4.9,2.4h-4.6l5.9-19.2H88l-2.8,9l7.6-7.1c1.8-1.8,4.2-2.8,6.7-2.7c1.6,0.1,2.4,1,2.4,2.9
	c0,0.8-0.1,1.6-0.4,2.3l-3.2,10.2L108.4,35.2L108.4,35.2z"/>
<path class="st0" d="M141.2,35.2c-0.8,3-2.9,4.5-6.1,4.5h-9.4c-2.7,0-4.1-1-4-2.9c-1.7,2.4-4.4,3.7-7.3,3.6
	c-1.8,0.1-3.6-0.6-4.9-1.9c-1.3-1.5-2-3.4-1.9-5.4c-0.2-3.7,1.4-7.3,4.4-9.6c2.7-2.1,6-3.1,9.4-3h5.1l4.6-14.9h9L131,35.2
	L141.2,35.2z M125.2,25.1h-6.3l-1.9,6.1c-0.2,0.5-0.2,1-0.2,1.5c0,1.2,0.9,2.3,2.1,2.4c1,0.1,2.1,0.2,3.2,0.2L125.2,25.1z"/>
<path class="st0" d="M183.3,20.5c-0.7,3-2.6,4.5-5.9,4.5h-15.5c0.7,0.6,1.1,1.4,1.3,2.3c0.3,0.9,0.5,1.9,0.4,2.9
	c-0.1,2.9-1.4,5.6-3.6,7.4c-2.3,1.8-5.2,2.7-8.2,2.6c-3.9,0-6.9-0.8-9-2.6c-1.8-1.5-2.9-3.8-2.8-6.2c0-0.5,0-1,0.1-1.5
	c0.3-2.6,1.6-5,3.7-6.7c2.5-1.8,5.6-2.7,8.7-2.6L183.3,20.5L183.3,20.5z M156.3,25.1h-5.7l-2.2,7.2c-0.1,0.3-0.2,0.7-0.2,1.1
	c0,1.6,1.3,2.4,4,2.4c0.3,0,0.6,0,0.8,0L156.3,25.1z"/>
<path class="st0" d="M219.1,35.2c-0.5,3-2.4,4.5-5.6,4.5h-10c-0.9,0-1.7-0.4-2.2-1.1c-0.6-0.7-1-1.6-1-2.5c0-0.3,0-0.6,0.1-0.9
	c0.4-1.4,0.9-3.4,1.6-6.1l-8.4,8c-2.1,2-3.9,3-5.4,3c-2.2,0-3.4-1-3.4-2.9c0-0.7,0.1-1.4,0.4-2l2-6.1l-9.9,9.4
	c-0.8,0.8-2,1.2-3.1,1.2h-5l5.9-19.2h8.9l-2.8,9l7.6-7.1c1.7-1.7,4-2.7,6.4-2.7c2,0,2.9,0.9,2.9,2.6c0,0.5-0.1,1.1-0.3,1.6l-1.8,5.6
	l7.4-7.2c1.6-1.7,3.7-2.6,6-2.6c2.1,0,3.1,1,3.1,3c0,0.8-0.1,1.5-0.4,2.3L209,35.2L219.1,35.2z"/>
</svg>
