<svg id="Vrstva_1" data-name="Vrstva 1" xmlns="http://www.w3.org/2000/svg" viewBox="0 0 314.67 87.26"><defs><style>.cls-1{fill:#3da5da;}</style></defs><path class="cls-1" d="M315.6,357.45a6.42,6.42,0,0,1-1.93,4.77,5.8,5.8,0,0,1-4.29,1.85,5.65,5.65,0,0,1-4.24-1.82l-7.73,25.44c-.73,2.44-2,3.67-3.79,3.67q-3.63,0-4.31-3.73l-3.86-21.71-5.24,18.37a8.43,8.43,0,0,1-3.12,4.58,7.78,7.78,0,0,1-4.8,1.63H261.23a26.26,26.26,0,0,1,1.75-4.27c.91-1.6,2-2.4,3.21-2.4a15.23,15.23,0,0,1,3.39.56A15.48,15.48,0,0,0,273,385q2.44,0,3.47-3.56l7.17-24.64a16.32,16.32,0,0,1,1.56-4.11,3.84,3.84,0,0,1,3.45-1.65q3.51,0,4.52,5.87l3.19,18.87,4.82-16q2.67-8.88,8.14-8.88a5.93,5.93,0,0,1,4.31,1.82A6.46,6.46,0,0,1,315.6,357.45Z" transform="translate(-152.73 -304.1)"/><path class="cls-1" d="M337.62,386.09a5.48,5.48,0,0,1-2.14,3.47,4.63,4.63,0,0,1-2.77.94H323q-3.42,0-3.42-2.59a5.71,5.71,0,0,1-4.92,2.59h-4.1a3.73,3.73,0,0,1-2.93-1.16,4.05,4.05,0,0,1-1-2.84,6.79,6.79,0,0,1,.33-2l3.91-12.72h8.45L315,386.09h4.73L324,371.74h8.35l-4.23,14.35Z" transform="translate(-152.73 -304.1)"/><path class="cls-1" d="M383.16,386.09q-.68,4.41-5.28,4.41h-9.46a2.71,2.71,0,0,1-2.06-1.09,3.7,3.7,0,0,1-.94-2.47,4,4,0,0,1,.09-.85q.53-2,1.54-5.93l-7.87,7.8q-3,2.93-5.1,2.93c-2.11,0-3.16-.94-3.16-2.82a6.27,6.27,0,0,1,.35-2l1.86-5.93-9.27,9.16a4,4,0,0,1-2.95,1.18h-4.75l5.56-18.76h8.41l-2.63,8.83,7.14-6.95a8.39,8.39,0,0,1,6-2.62c1.83,0,2.75.83,2.75,2.51a5.53,5.53,0,0,1-.26,1.57l-1.68,5.49,7-7a7.8,7.8,0,0,1,5.64-2.56c2,0,2.93,1,2.93,2.95a7.56,7.56,0,0,1-.37,2.21l-3,9.93Z" transform="translate(-152.73 -304.1)"/><path class="cls-1" d="M425.26,371.74c-1,2.95-2.74,4.42-5.15,4.42H407.54q-.9,7.89-6.87,11.61a18.9,18.9,0,0,1-10.22,2.73h-4.24a3.05,3.05,0,0,1-3.14-3.34,8.35,8.35,0,0,1,.37-2.31l8.31-27.62h8.39L391.45,386q5,.14,7.13-4.74a5.12,5.12,0,0,1-2.17-4.36,5.19,5.19,0,0,1,1.41-3.67,4.44,4.44,0,0,1,3.36-1.52Z" transform="translate(-152.73 -304.1)"/><path class="cls-1" d="M440.28,386.09a5.42,5.42,0,0,1-2.24,3.34,6.18,6.18,0,0,1-3.56,1.07h-13q-11.31,0-11.31-8.08a9.66,9.66,0,0,1,3.86-8.14,12.7,12.7,0,0,1,7.92-2.54h3.37a11.8,11.8,0,0,1,5.19,1.08,4.9,4.9,0,0,1,3.12,4.36,5.68,5.68,0,0,1-2.39,4.91h-7.71l2.51-5.93h-4.91l-1.91,6.65a3.77,3.77,0,0,0-.16,1c0,1.49,1,2.24,3,2.24Z" transform="translate(-152.73 -304.1)"/><path class="cls-1" d="M467.4,386.09a3.93,3.93,0,0,1-1.79,3.25,5.49,5.49,0,0,1-3.31,1.16h-8.92q-3.54,0-3.54-3.47a6.84,6.84,0,0,1,.31-1.91l2.63-9h-5l-2.59,7.91a2.68,2.68,0,0,1-2.81,2H440l3.05-9.93a4.05,4.05,0,0,1-2.34-1.73,5.35,5.35,0,0,1-.9-3.07,5.62,5.62,0,0,1,2.49-4.91,8.46,8.46,0,0,1,4.94-1.44H451L449,371.74h12.87l-4.24,14.35Z" transform="translate(-152.73 -304.1)"/><path class="cls-1" d="M195.27,339.31a4.34,4.34,0,0,1-1.73,3.39,5.5,5.5,0,0,1-3.45,1.13h-9.53a3.7,3.7,0,0,1-3-1.18,12.74,12.74,0,0,1-1.68-3.34L171,327a33.21,33.21,0,0,0,4.23-1.61,37.8,37.8,0,0,0,4-1.86q4.92-2.91,4.93-7.29,0-5-6.24-5H152.73l3.86-7.12h24.94q13.44,0,13.44,9.77,0,8.28-14,14.46l4.46,11Zm-20.73-24.45-9,29h-8.92l9-29Z" transform="translate(-152.73 -304.1)"/><path class="cls-1" d="M227.26,339.31c-.79,3-2.81,4.52-6.07,4.52h-9.38q-4,0-4-2.93a8.12,8.12,0,0,1-6.64,3.5,6,6,0,0,1-4.7-2,7.65,7.65,0,0,1-1.81-5.31,11.64,11.64,0,0,1,4-9.31,13.13,13.13,0,0,1,8.89-3.11h14.14L217,339.31Zm-16-10.16h-5.47l-1.74,6.58a5.35,5.35,0,0,0-.14,1.13q0,2.44,4.21,2.45Z" transform="translate(-152.73 -304.1)"/><path class="cls-1" d="M261.13,339.31a5.58,5.58,0,0,1-2.84,3.67,6.87,6.87,0,0,1-3.35.85h-9.88c-2.26,0-3.39-.85-3.39-2.54a7,7,0,0,1,.35-2l1.88-6.07-8.52,8.22q-3,2.37-4.93,2.37H225.9l5.92-19.2h8.93l-2.79,9,7.55-7.06a9.13,9.13,0,0,1,6.66-2.74c1.62.07,2.43,1.05,2.43,2.93a8.32,8.32,0,0,1-.4,2.35L251,339.31Z" transform="translate(-152.73 -304.1)"/><path class="cls-1" d="M293.94,339.31c-.83,3-2.85,4.52-6.07,4.52h-9.43q-4.08,0-4-2.93a8.68,8.68,0,0,1-7.31,3.64,6.45,6.45,0,0,1-4.85-1.92,7.35,7.35,0,0,1-1.93-5.37,11.6,11.6,0,0,1,4.36-9.6,14.8,14.8,0,0,1,9.43-3h5.15l4.63-14.91h9l-9.22,29.59Zm-16-10.16h-6.29l-1.88,6.07a5.28,5.28,0,0,0-.25,1.52,2.34,2.34,0,0,0,2.11,2.4,17.36,17.36,0,0,0,3.17.17Z" transform="translate(-152.73 -304.1)"/><path class="cls-1" d="M336,324.63q-1,4.51-5.94,4.52h-15.5a4.44,4.44,0,0,1,1.34,2.27,7.52,7.52,0,0,1,.42,2.87,10.06,10.06,0,0,1-3.64,7.4,12.64,12.64,0,0,1-8.17,2.59c-3.9,0-6.89-.83-9-2.62a7.8,7.8,0,0,1-2.8-6.24,8.78,8.78,0,0,1,.13-1.53,10.08,10.08,0,0,1,3.71-6.69,13.73,13.73,0,0,1,8.72-2.57Zm-27,4.52h-5.67l-2.23,7.23a3.48,3.48,0,0,0-.18,1.07q0,2.43,4,2.43c.32,0,.59,0,.82,0Z" transform="translate(-152.73 -304.1)"/><path class="cls-1" d="M371.84,339.31c-.48,3-2.36,4.52-5.62,4.52H356.16a2.93,2.93,0,0,1-2.19-1.11,3.75,3.75,0,0,1-.9-3.41c.36-1.39.91-3.41,1.63-6.07l-8.37,8q-3.16,3-5.42,3c-2.24,0-3.37-1-3.37-2.88a6.43,6.43,0,0,1,.38-2l2-6.07L330,342.62a4.35,4.35,0,0,1-3.14,1.21h-5l5.91-19.2h8.94l-2.8,9,7.61-7.12a9,9,0,0,1,6.38-2.68c1.95,0,2.93.85,2.93,2.57a5.57,5.57,0,0,1-.28,1.61l-1.78,5.62,7.4-7.18a8.42,8.42,0,0,1,6-2.62c2.08,0,3.12,1,3.12,3a7.65,7.65,0,0,1-.4,2.26l-3.19,10.16Z" transform="translate(-152.73 -304.1)"/></svg>